# xmcd
# Track frame offsets:
# 150
# 18844
# 35527
# 51105
# 66625
# 82680
# 99261
# 112102
# 129217
# 145109
# 156759
#
# Disc length: 2306 seconds
# Revision: 0
# Processed by: cddbd v1.4PL0 Copyright (c) Steve Scherf et al.
# Submitted via: VisiTrax 2.9.5.180 - For more info visit www.synapsa.com
#
DISCID=8609000b
DTITLE=Megan Murphy - Right where I belong
DYEAR=1900
DGENRE=
TTITLE0=Woman's intuition
TTITLE1=Hold me...'til the music starts again
TTITLE2=Try my love
TTITLE3=Right where I belong
TTITLE4=Driver's seat
TTITLE5=If my wishes had wings
TTITLE6=San Antonio stroll
TTITLE7=Deja blue
TTITLE8=Quarter til goodbye
TTITLE9=Roses in the rain
TTITLE10=When I go away
EXTD=
EXTT0=
EXTT1=
EXTT2=
EXTT3=
EXTT4=
EXTT5=
EXTT6=
EXTT7=
EXTT8=
EXTT9=
EXTT10=
PLAYORDER=
